<svg width="24" height="24" viewBox="0 0 24 24" fill="none" xmlns="http://www.w3.org/2000/svg">
<path d="M17.5 3V3.5H18H19C19.8322 3.5 20.5 4.17451 20.5 5V19C20.5 19.8339 19.8339 20.5 19 20.5H5C4.17451 20.5 3.5 19.8322 3.5 19V5C3.5 4.17614 4.17614 3.5 5 3.5H6H6.5V3V1.5H7.5V3V3.5H8H16H16.5V3V1.5H17.5V3ZM19 19.5H19.5V19V9V8.5H19H5H4.5V9V19V19.5H5H19ZM4.5 7V7.5H5H19H19.5V7V5V4.5H19H5H4.5V5V7ZM10.2064 15.6936L10.56 16.0471L10.9136 15.6936L15.4317 11.1755L15.7909 11.5314L10.5603 16.7532L8.09711 14.29L8.45 13.9371L10.2064 15.6936Z" fill="#1B1B1B" stroke="#A1A1A1"/>
</svg>
