<svg width="24" height="24" viewBox="0 0 24 24" fill="none" xmlns="http://www.w3.org/2000/svg">
<mask id="path-1-inside-1_10302_8984" fill="white">
<path d="M17 21L14.25 18L15.41 16.84L17 18.43L20.59 14.84L21.75 16.25M12.8 21H5C3.89 21 3 20.11 3 19V5C3 3.89 3.89 3 5 3H19C20.11 3 21 3.89 21 5V12.8C20.39 12.45 19.72 12.2 19 12.08V5H5V19H12.08C12.2 19.72 12.45 20.39 12.8 21ZM12 17H7V15H12M14.68 13H7V11H17V12.08C16.15 12.22 15.37 12.54 14.68 13ZM17 9H7V7H17"/>
</mask>
<path d="M17 21L14.25 18L15.41 16.84L17 18.43L20.59 14.84L21.75 16.25M12.8 21H5C3.89 21 3 20.11 3 19V5C3 3.89 3.89 3 5 3H19C20.11 3 21 3.89 21 5V12.8C20.39 12.45 19.72 12.2 19 12.08V5H5V19H12.08C12.2 19.72 12.45 20.39 12.8 21ZM12 17H7V15H12M14.68 13H7V11H17V12.08C16.15 12.22 15.37 12.54 14.68 13ZM17 9H7V7H17" fill="#1B1B1B"/>
<path d="M14.25 18L13.5429 17.2929L12.8659 17.9699L13.5128 18.6757L14.25 18ZM15.41 16.84L16.1171 16.1329L15.41 15.4258L14.7029 16.1329L15.41 16.84ZM17 18.43L16.2929 19.1371L17 19.8442L17.7071 19.1371L17 18.43ZM20.59 14.84L21.3622 14.2047L20.6621 13.3537L19.8829 14.1329L20.59 14.84ZM12.8 21V22H14.5267L13.6674 20.5023L12.8 21ZM21 12.8L20.5023 13.6674L22 14.5267V12.8H21ZM19 12.08H18V12.9271L18.8356 13.0664L19 12.08ZM19 5H20V4H19V5ZM5 5V4H4V5H5ZM5 19H4V20H5V19ZM12.08 19L13.0664 18.8356L12.9271 18H12.08V19ZM7 17H6V18H7V17ZM7 15V14H6V15H7ZM14.68 13V14H14.9828L15.2347 13.8321L14.68 13ZM7 13H6V14H7V13ZM7 11V10H6V11H7ZM17 11H18V10H17V11ZM17 12.08L17.1625 13.0667L18 12.9288V12.08H17ZM7 9H6V10H7V9ZM7 7V6H6V7H7ZM17.7372 20.3243L14.9872 17.3243L13.5128 18.6757L16.2628 21.6757L17.7372 20.3243ZM14.9571 18.7071L16.1171 17.5471L14.7029 16.1329L13.5429 17.2929L14.9571 18.7071ZM14.7029 17.5471L16.2929 19.1371L17.7071 17.7229L16.1171 16.1329L14.7029 17.5471ZM17.7071 19.1371L21.2971 15.5471L19.8829 14.1329L16.2929 17.7229L17.7071 19.1371ZM19.8178 15.4753L20.9778 16.8853L22.5222 15.6147L21.3622 14.2047L19.8178 15.4753ZM12.8 20H5V22H12.8V20ZM5 20C4.44228 20 4 19.5577 4 19H2C2 20.6623 3.33772 22 5 22V20ZM4 19V5H2V19H4ZM4 5C4 4.44228 4.44228 4 5 4V2C3.33772 2 2 3.33772 2 5H4ZM5 4H19V2H5V4ZM19 4C19.5577 4 20 4.44228 20 5H22C22 3.33772 20.6623 2 19 2V4ZM20 5V12.8H22V5H20ZM21.4977 11.9326C20.791 11.5272 20.0088 11.2343 19.1644 11.0936L18.8356 13.0664C19.4312 13.1657 19.989 13.3728 20.5023 13.6674L21.4977 11.9326ZM20 12.08V5H18V12.08H20ZM19 4H5V6H19V4ZM4 5V19H6V5H4ZM5 20H12.08V18H5V20ZM11.0936 19.1644C11.2343 20.0088 11.5272 20.791 11.9326 21.4977L13.6674 20.5023C13.3728 19.989 13.1657 19.4312 13.0664 18.8356L11.0936 19.1644ZM12 16H7V18H12V16ZM8 17V15H6V17H8ZM7 16H12V14H7V16ZM14.68 12H7V14H14.68V12ZM8 13V11H6V13H8ZM7 12H17V10H7V12ZM16 11V12.08H18V11H16ZM16.8375 11.0933C15.8408 11.2575 14.9279 11.6329 14.1253 12.1679L15.2347 13.8321C15.8121 13.4471 16.4592 13.1825 17.1625 13.0667L16.8375 11.0933ZM17 8H7V10H17V8ZM8 9V7H6V9H8ZM7 8H17V6H7V8Z" fill="#A1A1A1" mask="url(#path-1-inside-1_10302_8984)"/>
</svg>
