<svg width="24" height="24" viewBox="0 0 24 24" fill="none" xmlns="http://www.w3.org/2000/svg">
<mask id="path-1-inside-1_10385_4874" fill="white">
<path d="M11.9998 8C13.0607 8 14.0781 8.42143 14.8283 9.17157C15.5784 9.92172 15.9998 10.9391 15.9998 12C15.9998 13.0609 15.5784 14.0783 14.8283 14.8284C14.0781 15.5786 13.0607 16 11.9998 16C10.939 16 9.92156 15.5786 9.17141 14.8284C8.42127 14.0783 7.99984 13.0609 7.99984 12C7.99984 10.9391 8.42127 9.92172 9.17141 9.17157C9.92156 8.42143 10.939 8 11.9998 8ZM11.9998 10C11.4694 10 10.9607 10.2107 10.5856 10.5858C10.2106 10.9609 9.99984 11.4696 9.99984 12C9.99984 12.5304 10.2106 13.0391 10.5856 13.4142C10.9607 13.7893 11.4694 14 11.9998 14C12.5303 14 13.039 13.7893 13.4141 13.4142C13.7891 13.0391 13.9998 12.5304 13.9998 12C13.9998 11.4696 13.7891 10.9609 13.4141 10.5858C13.039 10.2107 12.5303 10 11.9998 10ZM9.99984 22C9.74984 22 9.53984 21.82 9.49984 21.58L9.12984 18.93C8.49984 18.68 7.95984 18.34 7.43984 17.94L4.94984 18.95C4.72984 19.03 4.45984 18.95 4.33984 18.73L2.33984 15.27C2.20984 15.05 2.26984 14.78 2.45984 14.63L4.56984 12.97L4.49984 12L4.56984 11L2.45984 9.37C2.26984 9.22 2.20984 8.95 2.33984 8.73L4.33984 5.27C4.45984 5.05 4.72984 4.96 4.94984 5.05L7.43984 6.05C7.95984 5.66 8.49984 5.32 9.12984 5.07L9.49984 2.42C9.53984 2.18 9.74984 2 9.99984 2H13.9998C14.2498 2 14.4598 2.18 14.4998 2.42L14.8698 5.07C15.4998 5.32 16.0398 5.66 16.5598 6.05L19.0498 5.05C19.2698 4.96 19.5398 5.05 19.6598 5.27L21.6598 8.73C21.7898 8.95 21.7298 9.22 21.5398 9.37L19.4298 11L19.4998 12L19.4298 13L21.5398 14.63C21.7298 14.78 21.7898 15.05 21.6598 15.27L19.6598 18.73C19.5398 18.95 19.2698 19.04 19.0498 18.95L16.5598 17.95C16.0398 18.34 15.4998 18.68 14.8698 18.93L14.4998 21.58C14.4598 21.82 14.2498 22 13.9998 22H9.99984ZM11.2498 4L10.8798 6.61C9.67984 6.86 8.61984 7.5 7.84984 8.39L5.43984 7.35L4.68984 8.65L6.79984 10.2C6.39984 11.37 6.39984 12.64 6.79984 13.8L4.67984 15.36L5.42984 16.66L7.85984 15.62C8.62984 16.5 9.67984 17.14 10.8698 17.38L11.2398 20H12.7598L13.1298 17.39C14.3198 17.14 15.3698 16.5 16.1398 15.62L18.5698 16.66L19.3198 15.36L17.1998 13.81C17.5998 12.64 17.5998 11.37 17.1998 10.2L19.3098 8.65L18.5598 7.35L16.1498 8.39C15.3798 7.5 14.3198 6.86 13.1198 6.62L12.7498 4H11.2498Z"/>
</mask>
<path d="M11.9998 8C13.0607 8 14.0781 8.42143 14.8283 9.17157C15.5784 9.92172 15.9998 10.9391 15.9998 12C15.9998 13.0609 15.5784 14.0783 14.8283 14.8284C14.0781 15.5786 13.0607 16 11.9998 16C10.939 16 9.92156 15.5786 9.17141 14.8284C8.42127 14.0783 7.99984 13.0609 7.99984 12C7.99984 10.9391 8.42127 9.92172 9.17141 9.17157C9.92156 8.42143 10.939 8 11.9998 8ZM11.9998 10C11.4694 10 10.9607 10.2107 10.5856 10.5858C10.2106 10.9609 9.99984 11.4696 9.99984 12C9.99984 12.5304 10.2106 13.0391 10.5856 13.4142C10.9607 13.7893 11.4694 14 11.9998 14C12.5303 14 13.039 13.7893 13.4141 13.4142C13.7891 13.0391 13.9998 12.5304 13.9998 12C13.9998 11.4696 13.7891 10.9609 13.4141 10.5858C13.039 10.2107 12.5303 10 11.9998 10ZM9.99984 22C9.74984 22 9.53984 21.82 9.49984 21.58L9.12984 18.93C8.49984 18.68 7.95984 18.34 7.43984 17.94L4.94984 18.95C4.72984 19.03 4.45984 18.95 4.33984 18.73L2.33984 15.27C2.20984 15.05 2.26984 14.78 2.45984 14.63L4.56984 12.97L4.49984 12L4.56984 11L2.45984 9.37C2.26984 9.22 2.20984 8.95 2.33984 8.73L4.33984 5.27C4.45984 5.05 4.72984 4.96 4.94984 5.05L7.43984 6.05C7.95984 5.66 8.49984 5.32 9.12984 5.07L9.49984 2.42C9.53984 2.18 9.74984 2 9.99984 2H13.9998C14.2498 2 14.4598 2.18 14.4998 2.42L14.8698 5.07C15.4998 5.32 16.0398 5.66 16.5598 6.05L19.0498 5.05C19.2698 4.96 19.5398 5.05 19.6598 5.27L21.6598 8.73C21.7898 8.95 21.7298 9.22 21.5398 9.37L19.4298 11L19.4998 12L19.4298 13L21.5398 14.63C21.7298 14.78 21.7898 15.05 21.6598 15.27L19.6598 18.73C19.5398 18.95 19.2698 19.04 19.0498 18.95L16.5598 17.95C16.0398 18.34 15.4998 18.68 14.8698 18.93L14.4998 21.58C14.4598 21.82 14.2498 22 13.9998 22H9.99984ZM11.2498 4L10.8798 6.61C9.67984 6.86 8.61984 7.5 7.84984 8.39L5.43984 7.35L4.68984 8.65L6.79984 10.2C6.39984 11.37 6.39984 12.64 6.79984 13.8L4.67984 15.36L5.42984 16.66L7.85984 15.62C8.62984 16.5 9.67984 17.14 10.8698 17.38L11.2398 20H12.7598L13.1298 17.39C14.3198 17.14 15.3698 16.5 16.1398 15.62L18.5698 16.66L19.3198 15.36L17.1998 13.81C17.5998 12.64 17.5998 11.37 17.1998 10.2L19.3098 8.65L18.5598 7.35L16.1498 8.39C15.3798 7.5 14.3198 6.86 13.1198 6.62L12.7498 4H11.2498Z" fill="#1B1B1B"/>
<path d="M15.9998 12H16.9998H15.9998ZM11.9998 16V17V16ZM7.99984 12H6.99984H7.99984ZM9.49984 21.58L8.50945 21.7183L8.51127 21.7314L8.51345 21.7444L9.49984 21.58ZM9.12984 18.93L10.1202 18.7917L10.0397 18.2152L9.49868 18.0005L9.12984 18.93ZM7.43984 17.94L8.04955 17.1474L7.59518 16.7979L7.06396 17.0133L7.43984 17.94ZM4.94984 18.95L5.29158 19.8898L5.30877 19.8835L5.32572 19.8767L4.94984 18.95ZM4.33984 18.73L5.21774 18.2511L5.21181 18.2403L5.20561 18.2296L4.33984 18.73ZM2.33984 15.27L3.20565 14.7695L3.20077 14.7613L2.33984 15.27ZM2.45984 14.63L1.84152 13.8441L1.8402 13.8451L2.45984 14.63ZM4.56984 12.97L5.18815 13.7559L5.60546 13.4276L5.56725 12.898L4.56984 12.97ZM4.49984 12L3.50228 11.9302L3.49732 12.0011L3.50243 12.072L4.49984 12ZM4.56984 11L5.5674 11.0698L5.60478 10.5359L5.18118 10.2086L4.56984 11ZM2.45984 9.37L1.84016 10.1549L1.8485 10.1614L2.45984 9.37ZM2.33984 8.73L3.20081 9.23875L3.20561 9.23044L2.33984 8.73ZM4.33984 5.27L5.20561 5.77044L5.21181 5.75972L5.21774 5.74885L4.33984 5.27ZM4.94984 5.05L4.5712 5.97557L4.57716 5.97796L4.94984 5.05ZM7.43984 6.05L7.06716 6.97796L7.58952 7.18774L8.03984 6.85L7.43984 6.05ZM9.12984 5.07L9.49868 5.99949L10.0397 5.78479L10.1202 5.20828L9.12984 5.07ZM9.49984 2.42L8.51345 2.2556L8.51127 2.26863L8.50945 2.28172L9.49984 2.42ZM14.4998 2.42L15.4902 2.28172L15.4884 2.26863L15.4862 2.2556L14.4998 2.42ZM14.8698 5.07L13.8794 5.20828L13.9599 5.78479L14.501 5.99949L14.8698 5.07ZM16.5598 6.05L15.9598 6.85L16.4102 7.18774L16.9325 6.97796L16.5598 6.05ZM19.0498 5.05L19.4225 5.97798L19.4285 5.97555L19.0498 5.05ZM19.6598 5.27L18.7819 5.74885L18.7879 5.75972L18.7941 5.77044L19.6598 5.27ZM21.6598 8.73L20.794 9.23047L20.7989 9.23873L21.6598 8.73ZM21.5398 9.37L22.1512 10.1614L22.1595 10.1549L21.5398 9.37ZM19.4298 11L18.8185 10.2086L18.3949 10.5359L18.4323 11.0698L19.4298 11ZM19.4998 12L20.4974 12.0698L20.5023 12L20.4974 11.9302L19.4998 12ZM19.4298 13L18.4323 12.9302L18.3949 13.4641L18.8185 13.7914L19.4298 13ZM21.5398 14.63L22.1595 13.8451L22.1512 13.8386L21.5398 14.63ZM21.6598 15.27L20.7989 14.7612L20.7941 14.7696L21.6598 15.27ZM19.6598 18.73L18.7941 18.2296L18.7879 18.2403L18.7819 18.2511L19.6598 18.73ZM19.0498 18.95L19.4285 18.0244L19.4225 18.022L19.0498 18.95ZM16.5598 17.95L16.9325 17.022L16.4102 16.8123L15.9598 17.15L16.5598 17.95ZM14.8698 18.93L14.501 18.0005L13.9599 18.2152L13.8794 18.7917L14.8698 18.93ZM14.4998 21.58L15.4862 21.7444L15.4884 21.7314L15.4902 21.7183L14.4998 21.58ZM11.2498 4V3H10.3816L10.2597 3.85964L11.2498 4ZM10.8798 6.61L11.0838 7.58898L11.7714 7.44574L11.8699 6.75036L10.8798 6.61ZM7.84984 8.39L7.45362 9.30816L8.12655 9.59855L8.60609 9.04428L7.84984 8.39ZM5.43984 7.35L5.83606 6.43184L5.01858 6.07907L4.57365 6.85028L5.43984 7.35ZM4.68984 8.65L3.82365 8.15028L3.37622 8.92584L4.09781 9.45592L4.68984 8.65ZM6.79984 10.2L7.74607 10.5235L7.98359 9.82876L7.39187 9.39408L6.79984 10.2ZM6.79984 13.8L7.39252 14.6054L7.98502 14.1694L7.74521 13.474L6.79984 13.8ZM4.67984 15.36L4.08716 14.5546L3.36658 15.0848L3.81365 15.8597L4.67984 15.36ZM5.42984 16.66L4.56365 17.1597L5.00724 17.9286L5.8233 17.5793L5.42984 16.66ZM7.85984 15.62L8.61242 14.9615L8.13412 14.4149L7.46638 14.7007L7.85984 15.62ZM10.8698 17.38L11.86 17.2402L11.7611 16.5396L11.0675 16.3997L10.8698 17.38ZM11.2398 20L10.2497 20.1398L10.3711 21H11.2398V20ZM12.7598 20V21H13.6281L13.7499 20.1404L12.7598 20ZM13.1298 17.39L12.9242 16.4114L12.2381 16.5555L12.1397 17.2496L13.1298 17.39ZM16.1398 15.62L16.5333 14.7007L15.8656 14.4149L15.3873 14.9615L16.1398 15.62ZM18.5698 16.66L18.1764 17.5793L18.9924 17.9286L19.436 17.1597L18.5698 16.66ZM19.3198 15.36L20.186 15.8597L20.6345 15.0824L19.91 14.5527L19.3198 15.36ZM17.1998 13.81L16.2536 13.4865L16.0155 14.1829L16.6096 14.6173L17.1998 13.81ZM17.1998 10.2L16.6078 9.39408L16.0161 9.82876L16.2536 10.5235L17.1998 10.2ZM19.3098 8.65L19.9019 9.45592L20.6235 8.92584L20.176 8.15028L19.3098 8.65ZM18.5598 7.35L19.426 6.85028L18.9811 6.07907L18.1636 6.43184L18.5598 7.35ZM16.1498 8.39L15.3936 9.04428L15.8731 9.59855L16.5461 9.30816L16.1498 8.39ZM13.1198 6.62L12.1297 6.75983L12.2288 7.46159L12.9237 7.60058L13.1198 6.62ZM12.7498 4L13.74 3.86017L13.6185 3H12.7498V4ZM11.9998 9C12.7955 9 13.5586 9.31607 14.1212 9.87868L15.5354 8.46447C14.5977 7.52678 13.3259 7 11.9998 7V9ZM14.1212 9.87868C14.6838 10.4413 14.9998 11.2044 14.9998 12H16.9998C16.9998 10.6739 16.4731 9.40215 15.5354 8.46447L14.1212 9.87868ZM14.9998 12C14.9998 12.7956 14.6838 13.5587 14.1212 14.1213L15.5354 15.5355C16.4731 14.5979 16.9998 13.3261 16.9998 12H14.9998ZM14.1212 14.1213C13.5586 14.6839 12.7955 15 11.9998 15V17C13.3259 17 14.5977 16.4732 15.5354 15.5355L14.1212 14.1213ZM11.9998 15C11.2042 15 10.4411 14.6839 9.87852 14.1213L8.46431 15.5355C9.40199 16.4732 10.6738 17 11.9998 17V15ZM9.87852 14.1213C9.31591 13.5587 8.99984 12.7956 8.99984 12H6.99984C6.99984 13.3261 7.52662 14.5979 8.46431 15.5355L9.87852 14.1213ZM8.99984 12C8.99984 11.2044 9.31591 10.4413 9.87852 9.87868L8.46431 8.46447C7.52662 9.40215 6.99984 10.6739 6.99984 12H8.99984ZM9.87852 9.87868C10.4411 9.31607 11.2042 9 11.9998 9V7C10.6738 7 9.40199 7.52678 8.46431 8.46447L9.87852 9.87868ZM11.9998 9C11.2042 9 10.4411 9.31607 9.87852 9.87868L11.2927 11.2929C11.4803 11.1054 11.7346 11 11.9998 11V9ZM9.87852 9.87868C9.31591 10.4413 8.99984 11.2043 8.99984 12H10.9998C10.9998 11.7348 11.1052 11.4804 11.2927 11.2929L9.87852 9.87868ZM8.99984 12C8.99984 12.7957 9.31591 13.5587 9.87852 14.1213L11.2927 12.7071C11.1052 12.5196 10.9998 12.2652 10.9998 12H8.99984ZM9.87852 14.1213C10.4411 14.6839 11.2042 15 11.9998 15V13C11.7346 13 11.4803 12.8946 11.2927 12.7071L9.87852 14.1213ZM11.9998 15C12.7955 15 13.5586 14.6839 14.1212 14.1213L12.7069 12.7071C12.5194 12.8946 12.2651 13 11.9998 13V15ZM14.1212 14.1213C14.6838 13.5587 14.9998 12.7957 14.9998 12H12.9998C12.9998 12.2652 12.8945 12.5196 12.7069 12.7071L14.1212 14.1213ZM14.9998 12C14.9998 11.2043 14.6838 10.4413 14.1212 9.87868L12.7069 11.2929C12.8945 11.4804 12.9998 11.7348 12.9998 12H14.9998ZM14.1212 9.87868C13.5586 9.31607 12.7955 9 11.9998 9V11C12.2651 11 12.5194 11.1054 12.7069 11.2929L14.1212 9.87868ZM9.99984 21C10.2366 21 10.4455 21.1713 10.4862 21.4156L8.51345 21.7444C8.63415 22.4687 9.2631 23 9.99984 23V21ZM10.4902 21.4417L10.1202 18.7917L8.13945 19.0683L8.50945 21.7183L10.4902 21.4417ZM9.49868 18.0005C8.97929 17.7944 8.52015 17.5094 8.04955 17.1474L6.83013 18.7326C7.39953 19.1706 8.02039 19.5656 8.76099 19.8595L9.49868 18.0005ZM7.06396 17.0133L4.57396 18.0233L5.32572 19.8767L7.81572 18.8667L7.06396 17.0133ZM4.6081 18.0102C4.71858 17.97 4.83063 17.9721 4.93002 18.006C5.03482 18.0417 5.14694 18.1214 5.21774 18.2511L3.46194 19.2089C3.84574 19.9125 4.66219 20.1187 5.29158 19.8898L4.6081 18.0102ZM5.20561 18.2296L3.20561 14.7696L1.47407 15.7704L3.47407 19.2304L5.20561 18.2296ZM3.20077 14.7613C3.33509 14.9886 3.26705 15.2668 3.07948 15.4149L1.8402 13.8451C1.27263 14.2932 1.08459 15.1114 1.47891 15.7787L3.20077 14.7613ZM3.07815 15.4159L5.18815 13.7559L3.95152 12.1841L1.84152 13.8441L3.07815 15.4159ZM5.56725 12.898L5.49725 11.928L3.50243 12.072L3.57243 13.042L5.56725 12.898ZM5.4974 12.0698L5.5674 11.0698L3.57228 10.9302L3.50228 11.9302L5.4974 12.0698ZM5.18118 10.2086L3.07118 8.57863L1.8485 10.1614L3.9585 11.7914L5.18118 10.2086ZM3.07948 8.58512C3.26705 8.73319 3.33509 9.01141 3.20077 9.23873L1.47891 8.22127C1.08459 8.88859 1.27263 9.70681 1.8402 10.1549L3.07948 8.58512ZM3.20561 9.23044L5.20561 5.77044L3.47407 4.76956L1.47407 8.22956L3.20561 9.23044ZM5.21774 5.74885C5.09135 5.98056 4.81793 6.07648 4.57121 5.97555L5.32847 4.12445C4.64175 3.84352 3.82833 4.11944 3.46194 4.79115L5.21774 5.74885ZM4.57716 5.97796L7.06716 6.97796L7.81251 5.12204L5.32251 4.12204L4.57716 5.97796ZM8.03984 6.85C8.5168 6.49228 8.97827 6.206 9.49868 5.99949L8.76099 4.14051C8.0214 4.434 7.40288 4.82772 6.83984 5.25L8.03984 6.85ZM10.1202 5.20828L10.4902 2.55828L8.50945 2.28172L8.13945 4.93172L10.1202 5.20828ZM10.4862 2.5844C10.4455 2.82865 10.2366 3 9.99984 3V1C9.2631 1 8.63415 1.53135 8.51345 2.2556L10.4862 2.5844ZM9.99984 3H13.9998V1H9.99984V3ZM13.9998 3C13.7631 3 13.5542 2.82865 13.5134 2.5844L15.4862 2.2556C15.3655 1.53135 14.7366 1 13.9998 1V3ZM13.5094 2.55828L13.8794 5.20828L15.8602 4.93172L15.4902 2.28172L13.5094 2.55828ZM14.501 5.99949C15.0214 6.206 15.4829 6.49228 15.9598 6.85L17.1598 5.25C16.5968 4.82772 15.9783 4.434 15.2387 4.14051L14.501 5.99949ZM16.9325 6.97796L19.4225 5.97796L18.6772 4.12204L16.1872 5.12204L16.9325 6.97796ZM19.4285 5.97555C19.1817 6.07648 18.9083 5.98056 18.7819 5.74885L20.5377 4.79115C20.1714 4.11944 19.3579 3.84352 18.6712 4.12445L19.4285 5.97555ZM18.7941 5.77044L20.7941 9.23044L22.5256 8.22956L20.5256 4.76956L18.7941 5.77044ZM20.7989 9.23873C20.6646 9.01141 20.7326 8.7332 20.9202 8.58512L22.1595 10.1549C22.7271 9.7068 22.9151 8.88858 22.5208 8.22127L20.7989 9.23873ZM20.9285 8.57863L18.8185 10.2086L20.0412 11.7914L22.1512 10.1614L20.9285 8.57863ZM18.4323 11.0698L18.5023 12.0698L20.4974 11.9302L20.4274 10.9302L18.4323 11.0698ZM18.5023 11.9302L18.4323 12.9302L20.4274 13.0698L20.4974 12.0698L18.5023 11.9302ZM18.8185 13.7914L20.9285 15.4214L22.1512 13.8386L20.0412 12.2086L18.8185 13.7914ZM20.9202 15.4149C20.7326 15.2668 20.6646 14.9886 20.7989 14.7613L22.5208 15.7787C22.9151 15.1114 22.7271 14.2932 22.1595 13.8451L20.9202 15.4149ZM20.7941 14.7696L18.7941 18.2296L20.5256 19.2304L22.5256 15.7704L20.7941 14.7696ZM18.7819 18.2511C18.9083 18.0194 19.1817 17.9235 19.4285 18.0245L18.6712 19.8755C19.3579 20.1565 20.1714 19.8806 20.5377 19.2089L18.7819 18.2511ZM19.4225 18.022L16.9325 17.022L16.1872 18.878L18.6772 19.878L19.4225 18.022ZM15.9598 17.15C15.4829 17.5077 15.0214 17.794 14.501 18.0005L15.2387 19.8595C15.9783 19.566 16.5968 19.1723 17.1598 18.75L15.9598 17.15ZM13.8794 18.7917L13.5094 21.4417L15.4902 21.7183L15.8602 19.0683L13.8794 18.7917ZM13.5134 21.4156C13.5542 21.1713 13.7631 21 13.9998 21V23C14.7366 23 15.3655 22.4687 15.4862 21.7444L13.5134 21.4156ZM13.9998 21H9.99984V23H13.9998V21ZM10.2597 3.85964L9.88974 6.46964L11.8699 6.75036L12.2399 4.14036L10.2597 3.85964ZM10.6759 5.63102C9.25731 5.92656 8.0045 6.68284 7.09359 7.73572L8.60609 9.04428C9.23518 8.31716 10.1024 7.79344 11.0838 7.58898L10.6759 5.63102ZM8.24606 7.47184L5.83606 6.43184L5.04362 8.26816L7.45362 9.30816L8.24606 7.47184ZM4.57365 6.85028L3.82365 8.15028L5.55603 9.14972L6.30603 7.84972L4.57365 6.85028ZM4.09781 9.45592L6.20781 11.0059L7.39187 9.39408L5.28187 7.84408L4.09781 9.45592ZM5.85361 9.8765C5.38223 11.2553 5.38132 12.7539 5.85447 14.126L7.74521 13.474C7.41836 12.5261 7.41745 11.4847 7.74607 10.5235L5.85361 9.8765ZM6.20716 12.9946L4.08716 14.5546L5.27252 16.1654L7.39252 14.6054L6.20716 12.9946ZM3.81365 15.8597L4.56365 17.1597L6.29602 16.1603L5.54603 14.8603L3.81365 15.8597ZM5.8233 17.5793L8.2533 16.5393L7.46638 14.7007L5.03638 15.7407L5.8233 17.5793ZM7.10726 16.2785C8.01401 17.3148 9.25544 18.0745 10.6721 18.3603L11.0675 16.3997C10.1042 16.2055 9.24567 15.6852 8.61242 14.9615L7.10726 16.2785ZM9.87966 17.5198L10.2497 20.1398L12.23 19.8602L11.86 17.2402L9.87966 17.5198ZM11.2398 21H12.7598V19H11.2398V21ZM13.7499 20.1404L14.1199 17.5304L12.1397 17.2496L11.7697 19.8596L13.7499 20.1404ZM13.3354 18.3686C14.7461 18.0723 15.9854 17.3151 16.8924 16.2785L15.3873 14.9615C14.7543 15.6849 13.8936 16.2077 12.9242 16.4114L13.3354 18.3686ZM15.7464 16.5393L18.1764 17.5793L18.9633 15.7407L16.5333 14.7007L15.7464 16.5393ZM19.436 17.1597L20.186 15.8597L18.4537 14.8603L17.7037 16.1603L19.436 17.1597ZM19.91 14.5527L17.79 13.0027L16.6096 14.6173L18.7296 16.1673L19.91 14.5527ZM18.1461 14.1335C18.6178 12.7538 18.6178 11.2562 18.1461 9.8765L16.2536 10.5235C16.5819 11.4838 16.5819 12.5262 16.2536 13.4865L18.1461 14.1335ZM17.7919 11.0059L19.9019 9.45592L18.7178 7.84408L16.6078 9.39408L17.7919 11.0059ZM20.176 8.15028L19.426 6.85028L17.6937 7.84972L18.4437 9.14972L20.176 8.15028ZM18.1636 6.43184L15.7536 7.47184L16.5461 9.30816L18.9561 8.26816L18.1636 6.43184ZM16.9061 7.73572C15.9954 6.68313 14.7406 5.92434 13.316 5.63942L12.9237 7.60058C13.8991 7.79566 14.7643 8.31687 15.3936 9.04428L16.9061 7.73572ZM14.11 6.48017L13.74 3.86017L11.7597 4.13983L12.1297 6.75983L14.11 6.48017ZM12.7498 3H11.2498V5H12.7498V3Z" fill="#A1A1A1" mask="url(#path-1-inside-1_10385_4874)"/>
</svg>
