<svg width="28" height="28" viewBox="0 0 28 28" fill="none" xmlns="http://www.w3.org/2000/svg">
<g clip-path="url(#clip0_14841_10672)">
<path fill-rule="evenodd" clip-rule="evenodd" d="M27.5006 14.3053C27.5017 13.379 27.4179 12.4545 27.2501 11.543H14.2725V16.7649H21.6866C21.5327 17.59 21.2098 18.3761 20.7374 19.0755C20.265 19.775 19.6528 20.3734 18.9379 20.8346V24.2227H23.3893C25.9939 21.8724 27.4967 18.4106 27.4967 14.3027L27.5006 14.3053Z" fill="#3E82F1"/>
<path fill-rule="evenodd" clip-rule="evenodd" d="M14.2758 27.4973C17.9952 27.4973 21.1137 26.2891 23.3926 24.2275L18.9413 20.8395C17.7071 21.6496 16.129 22.1291 14.2758 22.1291C10.6875 22.1291 7.65072 19.7534 6.56839 16.5625H1.96521V20.0612C3.11189 22.2973 4.87045 24.177 7.0444 25.4901C9.21835 26.8033 11.7221 27.4982 14.2758 27.4973Z" fill="#32A753"/>
<path fill-rule="evenodd" clip-rule="evenodd" d="M6.56845 16.5614C5.99225 14.8983 5.99225 13.0954 6.56845 11.4323V7.93359H1.96528C1.00186 9.81532 0.500183 11.8915 0.500183 13.9968C0.500183 16.1021 1.00186 18.1783 1.96528 20.0601L6.56845 16.5614Z" fill="#F9BB00"/>
<path fill-rule="evenodd" clip-rule="evenodd" d="M14.2758 5.86625C16.299 5.86625 18.1146 6.54792 19.5421 7.88584L23.4925 4.01326C21.1072 1.8347 17.9887 0.498048 14.2784 0.498048C11.7246 0.497117 9.22092 1.19205 7.04697 2.50521C4.87302 3.81837 3.11446 5.69802 1.96777 7.93417L6.57095 11.4329C7.65329 8.24194 10.6901 5.86625 14.2784 5.86625H14.2758Z" fill="#E74133"/>
</g>
<defs>
<clipPath id="clip0_14841_10672">
<rect width="27" height="27" fill="white" transform="translate(0.5 0.498047)"/>
</clipPath>
</defs>
</svg>
