<svg width="30" height="28" viewBox="0 0 30 28" fill="none" xmlns="http://www.w3.org/2000/svg">
<g clip-path="url(#clip0_14841_10679)">
<path d="M10.9629 13.0856H12.6908L11.8268 10.6914L10.9629 13.0856Z" fill="#331D1E"/>
<path d="M15 0.498047C6.71538 0.498047 0 5.662 0 12.0329C0 16.1517 2.80817 19.7697 7.03125 21.8066C6.80192 22.5789 5.55433 26.7778 5.50529 27.1084C5.50529 27.1084 5.475 27.356 5.63942 27.4502C5.69444 27.4773 5.75453 27.4931 5.81604 27.4967C5.87754 27.5004 5.93916 27.4917 5.99712 27.4713C6.47019 27.4066 11.4779 23.9813 12.3433 23.3919C13.2235 23.5111 14.1113 23.5699 15 23.5678C23.2846 23.5678 30 18.4038 30 12.0329C30 5.662 23.2846 0.498047 15 0.498047ZM7.57644 10.2422C7.55769 11.8739 7.59087 13.5901 7.56346 15.1965C7.55481 15.71 7.25192 15.8633 6.84231 16.0096C6.79603 16.0256 6.74618 16.029 6.69808 16.0195C6.22933 15.9294 5.85577 15.7663 5.84423 15.198C5.81106 13.5929 5.85433 11.8739 5.83125 10.2422C5.43462 10.2267 4.86923 10.2577 4.50144 10.2422C3.99087 10.2098 3.63606 9.89333 3.65769 9.42209C3.67933 8.95084 3.9375 8.61183 4.5101 8.60339C5.86298 8.5837 7.53894 8.5837 8.89183 8.60339C9.46875 8.61183 9.72548 8.95225 9.74279 9.42209C9.7601 9.89192 9.41106 10.2098 8.90192 10.2422C8.53846 10.2577 7.97452 10.2267 7.57644 10.2422ZM14.8457 15.9322C14.6727 16.009 14.4848 16.0489 14.2947 16.049C13.9341 16.049 13.6587 15.9083 13.5736 15.6762L13.1409 14.5818H10.5072L10.0745 15.6762C9.99086 15.9055 9.71538 16.049 9.35336 16.049C9.16372 16.049 8.9763 16.0092 8.80385 15.9322C8.56442 15.8253 8.3351 15.5299 8.5976 14.7337L10.6731 9.41927C10.7601 9.18518 10.916 8.98131 11.1212 8.83319C11.3265 8.68507 11.5719 8.59926 11.8269 8.58651C12.0817 8.60063 12.3267 8.68713 12.5317 8.83534C12.7367 8.98356 12.8928 9.18703 12.9808 9.42068L15.049 14.7323C15.313 15.5299 15.0837 15.831 14.8457 15.9322ZM19.2188 15.9322H16.4423C16.2273 15.9364 16.0193 15.8573 15.8639 15.7124C15.7085 15.5674 15.6183 15.3683 15.613 15.1586V9.43053C15.6222 9.20804 15.7193 8.99766 15.884 8.84342C16.0486 8.68918 16.2681 8.60305 16.4964 8.60305C16.7247 8.60305 16.9442 8.68918 17.1088 8.84342C17.2735 8.99766 17.3706 9.20804 17.3798 9.43053V14.3891H19.2188C19.3269 14.3827 19.4353 14.398 19.5373 14.434C19.6392 14.47 19.7325 14.526 19.8114 14.5985C19.8903 14.6709 19.9532 14.7584 19.9962 14.8554C20.0391 14.9525 20.0613 15.0571 20.0613 15.1628C20.0613 15.2685 20.0391 15.3731 19.9962 15.4702C19.9532 15.5672 19.8903 15.6546 19.8114 15.7271C19.7325 15.7996 19.6392 15.8555 19.5373 15.8915C19.4353 15.9275 19.3269 15.9428 19.2188 15.9365V15.9322ZM25.9976 15.2964C25.9751 15.4629 25.9022 15.6191 25.7881 15.7449C25.6741 15.8708 25.5242 15.9606 25.3576 16.0029C25.1909 16.0452 25.0152 16.038 24.8527 15.9823C24.6903 15.9266 24.5485 15.825 24.4457 15.6903L22.4163 13.0696L22.1163 13.3622V15.2036C22.1163 15.4274 22.0252 15.6421 21.8629 15.8004C21.7006 15.9587 21.4805 16.0476 21.251 16.0476C21.0214 16.0476 20.8013 15.9587 20.639 15.8004C20.4768 15.6421 20.3856 15.4274 20.3856 15.2036V9.43615C20.3856 9.21231 20.4768 8.99763 20.639 8.83934C20.8013 8.68106 21.0214 8.59214 21.251 8.59214C21.4805 8.59214 21.7006 8.68106 21.8629 8.83934C22.0252 8.99763 22.1163 9.21231 22.1163 9.43615V11.2452L24.5308 8.89036C24.594 8.8294 24.669 8.78134 24.7515 8.74898C24.8339 8.71661 24.9222 8.7006 25.0111 8.70186C25.2272 8.70739 25.4335 8.79058 25.5906 8.93545C25.7477 9.08032 25.8443 9.27667 25.862 9.48679C25.8698 9.58056 25.857 9.67486 25.8244 9.76341C25.7918 9.85195 25.7402 9.93269 25.6731 10.0002L23.6971 11.9232L25.8274 14.6761C25.9653 14.8546 26.025 15.0792 25.9933 15.3006L25.9976 15.2964Z" fill="#331D1E"/>
</g>
<defs>
<clipPath id="clip0_14841_10679">
<rect width="30" height="27" fill="white" transform="translate(0 0.498047)"/>
</clipPath>
</defs>
</svg>
