<svg width="44" height="44" viewBox="0 0 44 44" fill="none" xmlns="http://www.w3.org/2000/svg">
<rect width="44" height="44" rx="22" fill="#0B3B2D"/>
<path d="M26.8103 16.0601L14.0542 28.8476L13.2812 30.7188L15.1525 29.9459L27.94 17.1898L26.8103 16.0601ZM29.3627 13.5082L28.81 14.0604L29.9397 15.1901L30.4923 14.6374C30.6374 14.4923 30.7188 14.2955 30.7188 14.0904C30.7188 13.8852 30.6374 13.6885 30.4923 13.5434L30.4572 13.5082C30.3853 13.4363 30.3 13.3793 30.2061 13.3404C30.1122 13.3015 30.0116 13.2815 29.9099 13.2815C29.8083 13.2815 29.7076 13.3015 29.6137 13.3404C29.5198 13.3793 29.4345 13.4363 29.3627 13.5082Z" stroke="white" stroke-width="2.0625" stroke-linecap="round" stroke-linejoin="round"/>
</svg>
