<svg width="240" height="240" viewBox="0 0 240 240" fill="none" xmlns="http://www.w3.org/2000/svg">
<path fill-rule="evenodd" clip-rule="evenodd" d="M55 161.168V75.9736L99.9736 31H161.397C174.652 31 185.397 41.7452 185.397 55V143.29V161.168V184.259C185.397 197.514 174.652 208.259 161.397 208.259H79C65.7452 208.259 55 197.514 55 184.259V161.184C55 161.179 55 161.173 55 161.168Z" fill="#DDDDDD"/>
<path fill-rule="evenodd" clip-rule="evenodd" d="M58.7817 77.8613C56.1007 77.8613 54.766 74.6127 56.6727 72.7278L96.7523 33.1071C98.6471 31.234 101.861 32.5762 101.861 35.2406V53.8613C101.861 67.1161 91.1162 77.8613 77.8613 77.8613H58.7817Z" fill="#79747E"/>
</svg>
